.
 
http://www.scenetime.com    -  Hottest private tracker on the net. !!!

New release on http://www.scenetime.com

        Seed back for speed


...................................NFO:.................................................[IMG]http://i.imgur.com/c9aLZ.jpg[/IMG]

[color=blue][size=5][b]The.Devil.Inside.2012.Cam.SeT-CM8[/b][/size][/color]

[b]Source: INFERNO thank you very much guys

Bitrate :            1273 Kbps
Video   :            624 x 320
Audio   :            English MP3
Sample  :            Yes, included[/b]



[url]http://www.imdb.com/title/tt1560985/[/url]


Complete name                    : The.Devil.Inside.2012.Cam.SeT-CM8.avi
Format                           : AVI
Format/Info                      : Audio Video Interleave
File size                        : 686 MiB
Duration                         : 1h 15mn
Overall bit rate                 : 1 273 Kbps
Writing library                  : VirtualDub build 30091/release

Video
ID                               : 0
Format                           : MPEG-4 Visual
Format profile                   : Advanced Simple@L5
Format settings, BVOP            : 2
Format settings, QPel            : No
Format settings, GMC             : No warppoints
Format settings, Matrix          : Default (H.263)
Codec ID                         : XVID
Codec ID/Hint                    : XviD
Duration                         : 1h 15mn
Bit rate                         : 1 134 Kbps
Width                            : 624 pixels
Height                           : 320 pixels
Display aspect ratio             : 1.950
Frame rate                       : 29.970 fps
Color space                      : YUV
Chroma subsampling               : 4:2:0
Bit depth                        : 8 bits
Scan type                        : Progressive
Compression mode                 : Lossy
Bits/(Pixel*Frame)               : 0.189
Stream size                      : 610 MiB (89%)
Writing library                  : XviD 1.2.1 (UTC 2008-12-04)

Audio
ID                               : 1
Format                           : MPEG Audio
Format version                   : Version 1
Format profile                   : Layer 3
Mode                             : Joint stereo
Mode extension                   : MS Stereo
Codec ID                         : 55
Codec ID/Hint                    : MP3
Duration                         : 1h 15mn
Bit rate mode                    : Constant
Bit rate                         : 128 Kbps
Channel(s)                       : 2 channels
Sampling rate                    : 44.1 KHz
Compression mode                 : Lossy
Stream size                      : 68.9 MiB (10%)
Alignment                        : Split accross interleaves
Interleave, duration             : 33 ms (1.00 video frame)
Interleave, preload duration     : 500 ms


Cast

Fernanda Andrade 	... 	Isabella Rossi
Simon Quarterman 	... 	Father Ben Rawlings
Evan Helmuth 	        ... 	Father David Keane
Ionut Grama 	        ... 	Michael Schaefer
Suzan Crowley     	... 	Maria Rossi 




Storyline

In Italy, a woman becomes involved in a series of unauthorized exorcisms during her mission to discover what happened to her mother, 
who allegedly murdered three people during her own exorcism. 


[img]http://img829.imageshack.us/img829/9416/lkjhgfdsat.png[/img]
[img]http://img11.imageshack.us/img11/7866/iuhjkmnbv.png[/img]
[img]http://img832.imageshack.us/img832/5476/oikmnbv.png[/img]
[img]http://img834.imageshack.us/img834/5835/kiujmnhgb.png[/img]
[img]http://img4.imageshack.us/img4/3338/zasxcdfv.png[/img]
[img]http://img442.imageshack.us/img442/5583/trfgbvcd.png[/img]
[img]http://img36.imageshack.us/img36/8577/wsazsxcdfgv.png[/img]





Notes:
THIS HAS A STROBE, AKA FLICKER be warned ;)
Audio is very nice. Once again,thank you very much to INFERNO for suppling us with the files


Greetz:

big shout out to all @ CM8 Mr Hive , Sir Unevano, Super TED, Mr Pinny and Mr Simmo.
Greets to INFERNO,jtr,SAiNTS,DTRG,SANTi,BDK, ViSiON, THC,SAFC,3LTON, AMIABLE and mSD
all the other Legends out there Past and Present..




LOOKING FOR ANYTHING YOU WANT TO LOOK AND SOUND BETTER

CM8@hushmail.com